<svg width="140" height="46" viewBox="0 0 140 46" fill="none" xmlns="http://www.w3.org/2000/svg">
<path d="M58.1012 14.4649V17.4744C58.1012 17.6071 58.2091 17.7148 58.342 17.7148H62.5053C62.6382 17.7148 62.746 17.8224 62.746 17.9551V31.5369C62.746 31.6696 62.8539 31.7772 62.9868 31.7772H66.5121C66.645 31.7772 66.7529 31.6696 66.7529 31.5369V17.9551C66.7529 17.8224 66.8607 17.7148 66.9936 17.7148H71.157C71.2899 17.7148 71.3977 17.6071 71.3977 17.4744V14.4649C71.3977 14.3323 71.2899 14.2246 71.157 14.2246H58.342C58.2091 14.2246 58.1012 14.3323 58.1012 14.4649ZM87.1712 31.3985L83.1206 25.6646C83.0243 25.5281 83.0951 25.3435 83.2549 25.294C85.3698 24.6388 87.0306 22.3821 87.0306 20.033C87.0306 17.1288 85.1931 14.2246 81.1097 14.2246H74.1535C74.0206 14.2246 73.9128 14.3323 73.9128 14.4649V31.5369C73.9128 31.6696 74.0206 31.7772 74.1535 31.7772H77.6788C77.8117 31.7772 77.9196 31.6696 77.9196 31.5369V26.0928C77.9196 25.8275 78.1353 25.6122 78.4011 25.6122H78.4757C78.6385 25.6122 78.7902 25.6939 78.8788 25.8299L82.6973 31.6681C82.7416 31.7359 82.8177 31.7772 82.8991 31.7772H86.9748C87.1698 31.7772 87.2834 31.5576 87.1712 31.3985ZM80.5738 17.7148C82.2071 17.7148 82.9983 18.9631 82.9983 20.1349C82.9983 21.3068 82.2327 22.4532 80.4717 22.4532H78.1603C78.0274 22.4532 77.9196 22.3455 77.9196 22.2129V17.9551C77.9196 17.8224 78.0274 17.7148 78.1603 17.7148H80.5738ZM94.2941 31.5369V14.4649C94.2941 14.3323 94.1862 14.2246 94.0533 14.2246H90.528C90.3951 14.2246 90.2872 14.3323 90.2872 14.4649V31.5369C90.2872 31.6696 90.3951 31.7772 90.528 31.7772H94.0533C94.1862 31.7772 94.2941 31.6696 94.2941 31.5369ZM108.29 22.4023C110.306 21.8163 110.765 19.9821 110.765 18.7593C110.765 16.1607 108.698 14.2246 105.482 14.2246H98.6028C98.4699 14.2246 98.362 14.3323 98.362 14.4649V31.5369C98.362 31.6696 98.4699 31.7772 98.6028 31.7772H105.993C110.127 31.7772 111.684 29.1278 111.684 26.7331C111.684 24.7205 110.612 22.7334 108.29 22.4023ZM106.758 19.3961C106.758 20.4661 106.12 21.0775 105.176 21.0775H102.61C102.477 21.0775 102.369 20.9699 102.369 20.8372V17.9551C102.369 17.8224 102.477 17.7148 102.61 17.7148H105.202C106.299 17.7148 106.758 18.5045 106.758 19.3961ZM102.369 28.0468V24.6042C102.369 24.4715 102.477 24.3639 102.61 24.3639H105.508C107.014 24.3639 107.652 25.4084 107.652 26.3255C107.652 27.319 106.937 28.2871 105.508 28.2871H102.61C102.477 28.2871 102.369 28.1794 102.369 28.0468ZM118.478 14.2246H114.953C114.82 14.2246 114.712 14.3323 114.712 14.4649V31.5369C114.712 31.6696 114.82 31.7772 114.953 31.7772H124.935C125.068 31.7772 125.176 31.6696 125.176 31.5369V28.5274C125.176 28.3948 125.068 28.2871 124.935 28.2871H118.96C118.827 28.2871 118.719 28.1794 118.719 28.0468V14.4649C118.719 14.3323 118.611 14.2246 118.478 14.2246ZM131.944 24.9243H137.843C137.976 24.9243 138.084 24.8167 138.084 24.684V21.5726C138.084 21.44 137.976 21.3323 137.843 21.3323H131.944C131.811 21.3323 131.703 21.2246 131.703 21.0919V17.9551C131.703 17.8224 131.811 17.7148 131.944 17.7148H138.736C138.869 17.7148 138.977 17.6071 138.977 17.4744V14.4649C138.977 14.3323 138.869 14.2246 138.736 14.2246H127.937C127.804 14.2246 127.696 14.3323 127.696 14.4649V31.5369C127.696 31.6696 127.804 31.7772 127.937 31.7772H138.966C139.099 31.7772 139.206 31.6696 139.206 31.5369V28.5274C139.206 28.3948 139.099 28.2871 138.966 28.2871H131.944C131.811 28.2871 131.703 28.1794 131.703 28.0468V25.1647C131.703 25.032 131.811 24.9243 131.944 24.9243Z" fill="black"/>
<path fill-rule="evenodd" clip-rule="evenodd" d="M1.08993 5.46009C0 7.59921 0 10.3995 0 16V30C0 35.6005 0 38.4008 1.08993 40.5399C2.04867 42.4215 3.57847 43.9513 5.46009 44.9101C7.59921 46 10.3995 46 16 46H30C35.6005 46 38.4008 46 40.5399 44.9101C42.4215 43.9513 43.9513 42.4215 44.9101 40.5399C46 38.4008 46 35.6005 46 30V16C46 10.3995 46 7.59921 44.9101 5.46009C43.9513 3.57847 42.4215 2.04867 40.5399 1.08993C38.4008 0 35.6005 0 30 0H16C10.3995 0 7.59921 0 5.46009 1.08993C3.57847 2.04867 2.04867 3.57847 1.08993 5.46009ZM9.38294 20.3829C9.38294 22.7535 11.3226 24.6825 13.7068 24.6825C14.8802 24.6825 16.0195 24.199 16.8307 23.3546L14.4892 21.1286C14.2832 21.343 14.0053 21.4613 13.7072 21.4613C13.1088 21.4613 12.6222 20.9777 12.6222 20.3829C12.6222 20.0864 12.7403 19.8114 12.9553 19.6078L10.7225 17.2738C9.87134 18.0793 9.38294 19.2126 9.38294 20.3829ZM14.6645 14.0331C14.1402 13.554 13.8063 13.2489 13.9101 13.088C14.0392 12.8863 14.7084 13.1288 15.5037 13.4169C15.7452 13.5045 15.9984 13.5962 16.2516 13.681C18.2551 14.3508 20.5517 14.6875 22.8496 14.6875L20.4933 33.8953C18.4789 32.64 15.5642 30.8228 13.3547 29.4452L12.2016 28.7263C12.6743 28.5606 17.1588 26.9094 18.1464 22.7821C18.6434 20.7089 18.0495 18.8821 17.8564 18.349C17.1036 16.2618 15.5885 14.8773 14.6645 14.0331ZM22.8496 14.6875L25.2077 33.8953C27.0218 32.7636 28.8363 31.6327 30.6512 30.5016C31.6005 29.9099 32.5499 29.3182 33.4994 28.7263C33.0262 28.5606 28.5417 26.9094 27.5523 22.7821C27.0567 20.7089 27.6511 18.8821 27.8423 18.349C28.5969 16.261 30.1125 14.8763 31.0364 14.0322C31.5602 13.5536 31.8938 13.2488 31.7909 13.088C31.6617 12.8865 30.9916 13.1289 30.1951 13.417C29.9537 13.5044 29.7007 13.5959 29.4476 13.6805C27.4446 14.3508 25.148 14.6875 22.8496 14.6875ZM34.9776 17.2733C35.8292 18.0788 36.3172 19.2121 36.3172 20.3825C36.3172 22.7535 34.3774 24.6825 31.9933 24.6825C30.8199 24.6825 29.681 24.1981 28.8698 23.3537L31.2113 21.1282C31.4174 21.343 31.6952 21.4608 31.9933 21.4608C32.5917 21.4608 33.0783 20.9773 33.0783 20.3825C33.0783 20.086 32.9603 19.8109 32.7452 19.6073L34.9776 17.2733Z" fill="black"/>
</svg>
